Coordinates
version=1
nRows=38
nColumns=38
inDegrees=no

Units are S.I. units (second, meters, Newtons, ...)
If the header above contains a line with 'inDegrees', this indicates whether rotational values are in degrees (yes) or radians (no).

endheader
time	pelvis_tilt	pelvis_list	pelvis_rotation	pelvis_tx	pelvis_ty	pelvis_tz	hip_flexion_r	hip_adduction_r	hip_rotation_r	knee_angle_r	ankle_angle_r	subtalar_angle_r	mtp_angle_r	hip_flexion_l	hip_adduction_l	hip_rotation_l	knee_angle_l	ankle_angle_l	subtalar_angle_l	mtp_angle_l	lumbar_extension	lumbar_bending	lumbar_rotation	arm_flex_r	arm_add_r	arm_rot_r	elbow_flex_r	pro_sup_r	wrist_flex_r	wrist_dev_r	arm_flex_l	arm_add_l	arm_rot_l	elbow_flex_l	pro_sup_l	wrist_flex_l	wrist_dev_l
15	2.67879	1.37756	-1.183	0.684176	-0.975638	0.94186	-0.318162	0.174327	-0.187882	0.115162	-0.224345	0	0	0.0844387	-0.13471	-0.192261	0.38153	-0.269913	0	0	-0.451883	0.106837	0.151666	0.748448	-0.174518	0.452258	1.46116	1.5708	0	0	0.412122	-0.756738	0.240049	0.584386	1.5708	0	0
15.01	2.67071	1.38938	-1.17997	0.685242	-0.977585	0.940311	-0.318897	0.170421	-0.135458	0.057148	-0.272472	0	0	0.100771	-0.132328	-0.192481	0.387867	-0.267801	0	0	-0.439748	0.1002	0.151841	0.743465	-0.169916	0.451172	1.46551	1.5708	0	0	0.406102	-0.757332	0.231705	0.585056	1.5708	0	0
15.02	2.67532	1.39001	-1.18599	0.685893	-0.979138	0.939958	-0.310495	0.169969	-0.13041	0.0785492	-0.268019	0	0	0.102674	-0.131742	-0.192998	0.388034	-0.268855	0	0	-0.439562	0.0976288	0.150451	0.741185	-0.167879	0.452411	1.46987	1.5708	0	0	0.400787	-0.757737	0.223515	0.586986	1.5708	0	0
15.03	2.68836	1.38101	-1.19837	0.6861	-0.980687	0.940461	-0.304638	0.169003	-0.147745	0.11476	-0.254131	0	0	0.0932939	-0.132912	-0.193872	0.384963	-0.271716	0	0	-0.452362	0.0993975	0.151919	0.739136	-0.169572	0.451027	1.48143	1.5708	0	0	0.40025	-0.7553	0.216469	0.589218	1.5708	0	0
15.04	2.68571	1.38558	-1.19549	0.686691	-0.981659	0.94011	-0.310798	0.170518	-0.13023	0.0747178	-0.271305	0	0	0.0996472	-0.131869	-0.191353	0.384809	-0.274559	0	0	-0.444647	0.0959936	0.145997	0.73615	-0.165535	0.455982	1.48033	1.5708	0	0	0.388177	-0.757215	0.202522	0.594157	1.5708	0	0
15.05	2.68551	1.38124	-1.19495	0.687213	-0.982832	0.940444	-0.285406	0.172098	-0.179429	0.163975	-0.190753	0	0	0.0967376	-0.134452	-0.190485	0.384152	-0.277009	0	0	-0.449108	0.0966519	0.145206	0.733868	-0.164858	0.457246	1.48534	1.5708	0	0	0.382883	-0.756902	0.194125	0.598484	1.5708	0	0
15.06	2.68265	1.3862	-1.19344	0.687623	-0.983953	0.939789	-0.306193	0.172073	-0.123934	0.0743926	-0.26511	0	0	0.104579	-0.133202	-0.187655	0.386823	-0.276696	0	0	-0.443523	0.0940712	0.144986	0.72964	-0.164639	0.457811	1.49015	1.5708	0	0	0.377471	-0.756702	0.18916	0.601898	1.5708	0	0
15.07	2.68977	1.37912	-1.19958	0.687983	-0.985109	0.940379	-0.280385	0.17216	-0.181586	0.174993	-0.178548	0	0	0.098703	-0.135527	-0.186498	0.386535	-0.279605	0	0	-0.451924	0.0951769	0.144329	0.729299	-0.166058	0.460776	1.49489	1.5708	0	0	0.374086	-0.756697	0.183578	0.605806	1.5708	0	0
15.08	2.69363	1.38131	-1.20353	0.688169	-0.986124	0.940041	-0.305468	0.171998	-0.1216	0.0845918	-0.258935	0	0	0.103854	-0.134157	-0.183658	0.390119	-0.279913	0	0	-0.449913	0.0933755	0.142408	0.725187	-0.164595	0.461365	1.50146	1.5708	0	0	0.367249	-0.756148	0.173913	0.610442	1.5708	0	0
15.09	2.6992	1.37868	-1.20765	0.68828	-0.986944	0.940198	-0.301069	0.171351	-0.130657	0.104076	-0.263165	0	0	0.103626	-0.134661	-0.181732	0.392491	-0.281515	0	0	-0.45271	0.0937592	0.140187	0.722395	-0.164843	0.46357	1.50773	1.5708	0	0	0.362013	-0.755646	0.167351	0.61402	1.5708	0	0
15.1	2.70548	1.37668	-1.21154	0.688284	-0.987632	0.940467	-0.2996	0.171242	-0.132117	0.112078	-0.263274	0	0	0.0997264	-0.132602	-0.173969	0.384989	-0.284103	0	0	-0.454897	0.094127	0.137407	0.71885	-0.164738	0.464354	1.51345	1.5708	0	0	0.35747	-0.754892	0.161712	0.616482	1.5708	0	0
15.11	2.71011	1.37588	-1.21454	0.688542	-0.988064	0.940565	-0.305542	0.172141	-0.124426	0.0965478	-0.26627	0	0	0.104994	-0.135024	-0.179912	0.396172	-0.28693	0	0	-0.455679	0.0936369	0.135906	0.714366	-0.165718	0.464876	1.51999	1.5708	0	0	0.352322	-0.754461	0.155089	0.620082	1.5708	0	0
15.12	2.71522	1.37346	-1.21756	0.688397	-0.988863	0.940779	-0.307	0.173073	-0.119466	0.0994265	-0.259597	0	0	0.105608	-0.135398	-0.179503	0.399923	-0.287822	0	0	-0.458778	0.0949077	0.133844	0.71233	-0.166325	0.46607	1.52522	1.5708	0	0	0.348402	-0.753818	0.150826	0.622403	1.5708	0	0
15.13	2.72148	1.37195	-1.22235	0.688704	-0.989159	0.941031	-0.302349	0.172518	-0.126639	0.115284	-0.252709	0	0	0.105749	-0.136108	-0.182062	0.40286	-0.289815	0	0	-0.460067	0.0941912	0.132196	0.707568	-0.165814	0.465954	1.53152	1.5708	0	0	0.343077	-0.75375	0.144333	0.625738	1.5708	0	0
15.14	2.72119	1.37264	-1.21978	0.688683	-0.989605	0.94082	-0.304557	0.173286	-0.119928	0.104953	-0.250246	0	0	0.110055	-0.136316	-0.170244	0.418002	-0.289502	0	0	-0.458915	0.0951251	0.130099	0.704076	-0.167077	0.46708	1.53713	1.5708	0	0	0.338086	-0.752915	0.138273	0.628267	1.5708	0	0
15.15	2.73245	1.37146	-1.22841	0.688432	-0.990159	0.941025	-0.306148	0.172141	-0.118094	0.104132	-0.24933	0	0	0.111708	-0.135203	-0.181981	0.413938	-0.289665	0	0	-0.460813	0.09491	0.126758	0.700943	-0.166355	0.467045	1.54248	1.5708	0	0	0.33401	-0.75221	0.133563	0.6294	1.5708	0	0
15.16	2.73883	1.3706	-1.23349	0.688447	-0.990442	0.941111	-0.307631	0.171595	-0.117629	0.102616	-0.248917	0	0	0.113095	-0.136026	-0.1884	0.418424	-0.29131	0	0	-0.461631	0.09476	0.125039	0.697183	-0.166757	0.467635	1.54824	1.5708	0	0	0.329267	-0.751433	0.127532	0.631159	1.5708	0	0
15.17	2.74203	1.37117	-1.23641	0.688732	-0.990419	0.941024	-0.308505	0.171037	-0.117275	0.099334	-0.249265	0	0	0.117582	-0.139088	-0.200447	0.428608	-0.292546	0	0	-0.460178	0.09395	0.124225	0.692249	-0.167009	0.468342	1.55384	1.5708	0	0	0.323332	-0.750518	0.119148	0.633236	1.5708	0	0
15.18	2.74562	1.36946	-1.2385	0.688581	-0.990277	0.941072	-0.310174	0.171187	-0.116451	0.100837	-0.249042	0	0	0.122246	-0.144236	-0.21806	0.445662	-0.292164	0	0	-0.460879	0.0951135	0.122283	0.688162	-0.167617	0.469395	1.55898	1.5708	0	0	0.316139	-0.749017	0.108969	0.636135	1.5708	0	0
15.19	2.7514	1.36845	-1.24297	0.688432	-0.990219	0.941073	-0.310507	0.1705	-0.116449	0.103561	-0.247773	0	0	0.12604	-0.147371	-0.230721	0.458549	-0.290836	0	0	-0.461271	0.0955783	0.120208	0.684536	-0.167939	0.470273	1.56361	1.5708	0	0	0.309813	-0.747938	0.100549	0.638471	1.5708	0	0
15.2	2.75711	1.3649	-1.247	0.688036	-0.990322	0.941272	-0.308016	0.170931	-0.132033	0.11891	-0.254709	0	0	0.126316	-0.14979	-0.239004	0.468351	-0.289279	0	0	-0.465042	0.097565	0.118406	0.683118	-0.170375	0.472873	1.56865	1.5708	0	0	0.304325	-0.745969	0.0911891	0.641161	1.5708	0	0
15.21	2.76222	1.36445	-1.25101	0.687861	-0.990271	0.941303	-0.306832	0.168844	-0.131082	0.125696	-0.246282	0	0	0.127956	-0.150216	-0.242839	0.473847	-0.28904	0	0	-0.464924	0.0980347	0.116365	0.679039	-0.169402	0.473122	1.57328	1.5708	0	0	0.298661	-0.745023	0.0839428	0.642314	1.5708	0	0
15.22	2.76317	1.36678	-1.25133	0.688017	-0.989797	0.941162	-0.312823	0.169725	-0.123825	0.104855	-0.244216	0	0	0.13237	-0.151479	-0.24874	0.480193	-0.289085	0	0	-0.461162	0.0973934	0.115391	0.673139	-0.170583	0.473655	1.57906	1.5708	0	0	0.292345	-0.744284	0.0761489	0.644208	1.5708	0	0
15.23	2.76439	1.36404	-1.25295	0.688008	-0.989758	0.941196	-0.315126	0.169877	-0.118157	0.106349	-0.243881	0	0	0.13107	-0.153523	-0.252378	0.484615	-0.288558	0	0	-0.4648	0.0998938	0.117316	0.668975	-0.171433	0.471581	1.58636	1.5708	0	0	0.289905	-0.74279	0.0728134	0.644516	1.5708	0	0
15.24	2.76042	1.36628	-1.25018	0.688235	-0.989441	0.941118	-0.312674	0.169584	-0.117185	0.106594	-0.243761	0	0	0.134664	-0.155244	-0.256146	0.488439	-0.288241	0	0	-0.460505	0.0990884	0.117519	0.665462	-0.173198	0.474427	1.58948	1.5708	0	0	0.283303	-0.742242	0.0645294	0.646913	1.5708	0	0
15.25	2.75915	1.36821	-1.24893	0.688282	-0.989058	0.94098	-0.310638	0.170009	-0.1137	0.106838	-0.243267	0	0	0.137951	-0.156136	-0.258517	0.492032	-0.28816	0	0	-0.457171	0.0991889	0.116672	0.660623	-0.172632	0.474446	1.59342	1.5708	0	0	0.27688	-0.741459	0.05686	0.648792	1.5708	0	0
15.26	2.75891	1.37031	-1.24843	0.688255	-0.988723	0.940881	-0.30879	0.169257	-0.112012	0.107326	-0.242813	0	0	0.14144	-0.156506	-0.260072	0.495252	-0.288561	0	0	-0.454239	0.0990713	0.115881	0.656578	-0.173103	0.473772	1.59658	1.5708	0	0	0.271081	-0.740513	0.0495276	0.650978	1.5708	0	0
15.27	2.77662	1.37468	-1.26541	0.687999	-0.988223	0.940222	-0.28359	0.164651	-0.0810443	0.171336	-0.209824	0	0	0.146549	-0.151968	-0.261627	0.500129	-0.28811	0	0	-0.449384	0.0954839	0.112626	0.652728	-0.172616	0.473952	1.59987	1.5708	0	0	0.262427	-0.739023	0.0353016	0.655528	1.5708	0	0
15.28	2.77981	1.377	-1.26884	0.688236	-0.987755	0.940174	-0.285182	0.163252	-0.0745519	0.163158	-0.20757	0	0	0.148959	-0.151533	-0.2612	0.501231	-0.288833	0	0	-0.446625	0.094186	0.112862	0.648788	-0.17436	0.474847	1.6038	1.5708	0	0	0.258945	-0.738626	0.0312245	0.65624	1.5708	0	0
15.29	2.75609	1.37637	-1.24561	0.688565	-0.98771	0.94047	-0.294129	0.166976	-0.128725	0.133361	-0.223188	0	0	0.151466	-0.15697	-0.24534	0.513891	-0.288864	0	0	-0.44668	0.0985531	0.115241	0.64442	-0.172928	0.472524	1.60854	1.5708	0	0	0.255665	-0.737153	0.024823	0.658209	1.5708	0	0
15.3	2.77872	1.37718	-1.26689	0.687866	-0.987461	0.939982	-0.287366	0.163861	-0.0691944	0.157751	-0.211244	0	0	0.152317	-0.150993	-0.240743	0.516787	-0.286648	0	0	-0.446474	0.096866	0.111518	0.643915	-0.172691	0.474041	1.61108	1.5708	0	0	0.249617	-0.736699	0.0183389	0.661301	1.5708	0	0
15.31	2.78867	1.37611	-1.27776	0.687941	-0.987337	0.940231	-0.285963	0.162042	-0.0757125	0.167566	-0.205084	0	0	0.151008	-0.150977	-0.251951	0.507968	-0.287898	0	0	-0.448835	0.095518	0.111987	0.642896	-0.173469	0.474585	1.61367	1.5708	0	0	0.24647	-0.736484	0.0137226	0.663493	1.5708	0	0
15.32	2.79492	1.37528	-1.28358	0.687844	-0.987029	0.940391	-0.290874	0.161032	-0.0717848	0.159044	-0.20447	0	0	0.150528	-0.150498	-0.24944	0.509332	-0.289862	0	0	-0.449886	0.0955431	0.11085	0.640509	-0.171056	0.473687	1.61569	1.5708	0	0	0.242602	-0.736363	0.00945784	0.664906	1.5708	0	0
15.33	2.7994	1.37422	-1.28823	0.687834	-0.986709	0.940558	-0.290896	0.160884	-0.0776456	0.164237	-0.203298	0	0	0.149772	-0.150632	-0.24722	0.510517	-0.291939	0	0	-0.451384	0.09569	0.110612	0.639115	-0.170355	0.473778	1.61749	1.5708	0	0	0.239429	-0.736085	0.00577663	0.66614	1.5708	0	0
15.34	2.79549	1.37545	-1.28406	0.687747	-0.986398	0.940383	-0.294597	0.161426	-0.0706375	0.151579	-0.204664	0	0	0.152848	-0.150528	-0.230556	0.522622	-0.292612	0	0	-0.449968	0.0972172	0.110088	0.63811	-0.170127	0.47469	1.619	1.5708	0	0	0.235468	-0.735242	0.000427364	0.66754	1.5708	0	0
15.35	2.79931	1.3744	-1.28831	0.687707	-0.986226	0.94053	-0.297639	0.16095	-0.0692266	0.148173	-0.206198	0	0	0.152365	-0.150714	-0.227615	0.523819	-0.292761	0	0	-0.452088	0.0978111	0.110302	0.639175	-0.171433	0.476491	1.61997	1.5708	0	0	0.233152	-0.734734	-0.00297057	0.668151	1.5708	0	0
15.36	2.80886	1.37294	-1.29879	0.68774	-0.986013	0.940844	-0.300933	0.158996	-0.0686379	0.146315	-0.207533	0	0	0.150543	-0.150776	-0.237284	0.514915	-0.294432	0	0	-0.454811	0.0968743	0.110369	0.638654	-0.168941	0.475829	1.62067	1.5708	0	0	0.230921	-0.734481	-0.00643193	0.66862	1.5708	0	0
15.37	2.81216	1.37329	-1.30392	0.688084	-0.985477	0.940971	-0.302424	0.158252	-0.0679264	0.143923	-0.208643	0	0	0.150242	-0.151471	-0.238017	0.514613	-0.296686	0	0	-0.454779	0.0956784	0.111853	0.637233	-0.167893	0.475129	1.6213	1.5708	0	0	0.228629	-0.734313	-0.009422	0.669092	1.5708	0	0
